<mxfile host="Electron" modified="2024-03-25T23:59:06.788Z" agent="Mozilla/5.0 (Windows NT 10.0; Win64; x64) AppleWebKit/537.36 (KHTML, like Gecko) draw.io/24.1.0 Chrome/120.0.6099.109 Electron/28.1.0 Safari/537.36" etag="JPjTHhwzmNeyrOLQOX95" version="24.1.0" type="device">
  <diagram name="Страница — 1" id="E2Jnof0Cnpc3Nhv655wi">
    <mxGraphModel dx="1313" dy="786" grid="1" gridSize="10" guides="1" tooltips="1" connect="1" arrows="1" fold="1" page="1" pageScale="1" pageWidth="827" pageHeight="1169" math="0" shadow="0">
      <root>
        <mxCell id="0" />
        <mxCell id="1" parent="0" />
        <mxCell id="JBc9ciDDr-4Mu98TSSK5-10" style="edgeStyle=orthogonalEdgeStyle;rounded=0;orthogonalLoop=1;jettySize=auto;html=1;exitX=0.5;exitY=1;exitDx=0;exitDy=0;" edge="1" parent="1" source="JBc9ciDDr-4Mu98TSSK5-1" target="JBc9ciDDr-4Mu98TSSK5-2">
          <mxGeometry relative="1" as="geometry" />
        </mxCell>
        <mxCell id="JBc9ciDDr-4Mu98TSSK5-1" value="" style="ellipse;fillColor=strokeColor;html=1;" vertex="1" parent="1">
          <mxGeometry x="399" y="30" width="30" height="30" as="geometry" />
        </mxCell>
        <mxCell id="JBc9ciDDr-4Mu98TSSK5-2" value="Ожидание создания сесии" style="html=1;align=center;verticalAlign=top;rounded=1;absoluteArcSize=1;arcSize=10;dashed=0;whiteSpace=wrap;" vertex="1" parent="1">
          <mxGeometry x="344" y="100" width="140" height="40" as="geometry" />
        </mxCell>
        <mxCell id="JBc9ciDDr-4Mu98TSSK5-3" value="Проверка данных" style="html=1;align=center;verticalAlign=top;rounded=1;absoluteArcSize=1;arcSize=10;dashed=0;whiteSpace=wrap;" vertex="1" parent="1">
          <mxGeometry x="344" y="210" width="140" height="40" as="geometry" />
        </mxCell>
        <mxCell id="JBc9ciDDr-4Mu98TSSK5-4" value="Авторизация" style="html=1;verticalAlign=bottom;endArrow=block;curved=0;rounded=0;exitX=0.5;exitY=1;exitDx=0;exitDy=0;entryX=0.5;entryY=0;entryDx=0;entryDy=0;" edge="1" parent="1" source="JBc9ciDDr-4Mu98TSSK5-2" target="JBc9ciDDr-4Mu98TSSK5-3">
          <mxGeometry width="80" relative="1" as="geometry">
            <mxPoint x="370" y="230" as="sourcePoint" />
            <mxPoint x="450" y="230" as="targetPoint" />
          </mxGeometry>
        </mxCell>
        <mxCell id="JBc9ciDDr-4Mu98TSSK5-6" value="[Данные введены неверно]" style="html=1;verticalAlign=bottom;endArrow=block;curved=0;rounded=0;exitX=0;exitY=0.5;exitDx=0;exitDy=0;entryX=0;entryY=0.5;entryDx=0;entryDy=0;" edge="1" parent="1" source="JBc9ciDDr-4Mu98TSSK5-3" target="JBc9ciDDr-4Mu98TSSK5-2">
          <mxGeometry width="80" relative="1" as="geometry">
            <mxPoint x="370" y="230" as="sourcePoint" />
            <mxPoint x="450" y="230" as="targetPoint" />
            <Array as="points">
              <mxPoint x="290" y="230" />
              <mxPoint x="290" y="120" />
            </Array>
          </mxGeometry>
        </mxCell>
        <mxCell id="JBc9ciDDr-4Mu98TSSK5-7" value="Ожидание выбора действий" style="html=1;align=center;verticalAlign=top;rounded=1;absoluteArcSize=1;arcSize=10;dashed=0;whiteSpace=wrap;" vertex="1" parent="1">
          <mxGeometry x="344" y="410" width="140" height="40" as="geometry" />
        </mxCell>
        <mxCell id="JBc9ciDDr-4Mu98TSSK5-8" value="Начать сессию" style="html=1;verticalAlign=bottom;endArrow=block;curved=0;rounded=0;exitX=0.5;exitY=1;exitDx=0;exitDy=0;" edge="1" parent="1" source="JBc9ciDDr-4Mu98TSSK5-3" target="JBc9ciDDr-4Mu98TSSK5-7">
          <mxGeometry x="-0.375" width="80" relative="1" as="geometry">
            <mxPoint x="490" y="420" as="sourcePoint" />
            <mxPoint x="570" y="420" as="targetPoint" />
            <mxPoint y="-1" as="offset" />
          </mxGeometry>
        </mxCell>
        <mxCell id="JBc9ciDDr-4Mu98TSSK5-9" value="Обработка запроса поиска" style="html=1;align=center;verticalAlign=top;rounded=1;absoluteArcSize=1;arcSize=10;dashed=0;whiteSpace=wrap;" vertex="1" parent="1">
          <mxGeometry x="630" y="410" width="140" height="40" as="geometry" />
        </mxCell>
        <mxCell id="JBc9ciDDr-4Mu98TSSK5-11" value="Поиск товара" style="html=1;verticalAlign=bottom;endArrow=block;curved=0;rounded=0;exitX=1;exitY=0.5;exitDx=0;exitDy=0;entryX=0;entryY=0.5;entryDx=0;entryDy=0;" edge="1" parent="1" source="JBc9ciDDr-4Mu98TSSK5-7" target="JBc9ciDDr-4Mu98TSSK5-9">
          <mxGeometry width="80" relative="1" as="geometry">
            <mxPoint x="630" y="480" as="sourcePoint" />
            <mxPoint x="710" y="480" as="targetPoint" />
          </mxGeometry>
        </mxCell>
        <mxCell id="JBc9ciDDr-4Mu98TSSK5-12" value="Определение наличия товара" style="html=1;align=center;verticalAlign=top;rounded=1;absoluteArcSize=1;arcSize=10;dashed=0;whiteSpace=wrap;" vertex="1" parent="1">
          <mxGeometry x="920" y="410" width="140" height="40" as="geometry" />
        </mxCell>
        <mxCell id="JBc9ciDDr-4Mu98TSSK5-13" value="[Товар с таким названием не существует]" style="html=1;verticalAlign=bottom;endArrow=block;curved=0;rounded=0;exitX=0.5;exitY=0;exitDx=0;exitDy=0;" edge="1" parent="1" source="JBc9ciDDr-4Mu98TSSK5-9">
          <mxGeometry width="80" relative="1" as="geometry">
            <mxPoint x="650" y="430" as="sourcePoint" />
            <mxPoint x="470" y="410" as="targetPoint" />
            <Array as="points">
              <mxPoint x="700" y="380" />
              <mxPoint x="470" y="380" />
            </Array>
          </mxGeometry>
        </mxCell>
        <mxCell id="JBc9ciDDr-4Mu98TSSK5-14" value="[Товар найден]" style="html=1;verticalAlign=bottom;endArrow=block;curved=0;rounded=0;entryX=0;entryY=0.5;entryDx=0;entryDy=0;" edge="1" parent="1" target="JBc9ciDDr-4Mu98TSSK5-12">
          <mxGeometry width="80" relative="1" as="geometry">
            <mxPoint x="770" y="430" as="sourcePoint" />
            <mxPoint x="730" y="430" as="targetPoint" />
          </mxGeometry>
        </mxCell>
        <mxCell id="JBc9ciDDr-4Mu98TSSK5-15" value="[Нет в наличии]" style="html=1;verticalAlign=bottom;endArrow=block;curved=0;rounded=0;exitX=0.5;exitY=0;exitDx=0;exitDy=0;entryX=0.75;entryY=0;entryDx=0;entryDy=0;" edge="1" parent="1" source="JBc9ciDDr-4Mu98TSSK5-12" target="JBc9ciDDr-4Mu98TSSK5-7">
          <mxGeometry width="80" relative="1" as="geometry">
            <mxPoint x="770" y="380" as="sourcePoint" />
            <mxPoint x="850" y="380" as="targetPoint" />
            <Array as="points">
              <mxPoint x="990" y="350" />
              <mxPoint x="449" y="350" />
            </Array>
          </mxGeometry>
        </mxCell>
        <mxCell id="JBc9ciDDr-4Mu98TSSK5-16" value="Добавление товара, формирование корзины" style="html=1;align=center;verticalAlign=top;rounded=1;absoluteArcSize=1;arcSize=10;dashed=0;whiteSpace=wrap;" vertex="1" parent="1">
          <mxGeometry x="1210" y="410" width="140" height="40" as="geometry" />
        </mxCell>
        <mxCell id="JBc9ciDDr-4Mu98TSSK5-17" value="[В наличии]" style="html=1;verticalAlign=bottom;endArrow=block;curved=0;rounded=0;exitX=1;exitY=0.5;exitDx=0;exitDy=0;entryX=0;entryY=0.5;entryDx=0;entryDy=0;" edge="1" parent="1" source="JBc9ciDDr-4Mu98TSSK5-12" target="JBc9ciDDr-4Mu98TSSK5-16">
          <mxGeometry width="80" relative="1" as="geometry">
            <mxPoint x="1030" y="450" as="sourcePoint" />
            <mxPoint x="1110" y="450" as="targetPoint" />
          </mxGeometry>
        </mxCell>
        <mxCell id="JBc9ciDDr-4Mu98TSSK5-18" value="Обработка запроса на создания заказа" style="html=1;align=center;verticalAlign=top;rounded=1;absoluteArcSize=1;arcSize=10;dashed=0;whiteSpace=wrap;" vertex="1" parent="1">
          <mxGeometry x="1210" y="500" width="140" height="40" as="geometry" />
        </mxCell>
        <mxCell id="JBc9ciDDr-4Mu98TSSK5-19" value="Создание заказа" style="html=1;verticalAlign=bottom;endArrow=block;curved=0;rounded=0;exitX=0.5;exitY=1;exitDx=0;exitDy=0;" edge="1" parent="1" source="JBc9ciDDr-4Mu98TSSK5-16" target="JBc9ciDDr-4Mu98TSSK5-18">
          <mxGeometry x="0.2" width="80" relative="1" as="geometry">
            <mxPoint x="1070" y="520" as="sourcePoint" />
            <mxPoint x="1150" y="520" as="targetPoint" />
            <mxPoint as="offset" />
          </mxGeometry>
        </mxCell>
        <mxCell id="JBc9ciDDr-4Mu98TSSK5-20" value="Обработка запроса на оплату заказа" style="html=1;align=center;verticalAlign=top;rounded=1;absoluteArcSize=1;arcSize=10;dashed=0;whiteSpace=wrap;" vertex="1" parent="1">
          <mxGeometry x="920" y="500" width="140" height="40" as="geometry" />
        </mxCell>
        <mxCell id="JBc9ciDDr-4Mu98TSSK5-21" value="Оплата заказа" style="html=1;verticalAlign=bottom;endArrow=block;curved=0;rounded=0;exitX=0;exitY=0.5;exitDx=0;exitDy=0;" edge="1" parent="1" source="JBc9ciDDr-4Mu98TSSK5-18" target="JBc9ciDDr-4Mu98TSSK5-20">
          <mxGeometry width="80" relative="1" as="geometry">
            <mxPoint x="990" y="570" as="sourcePoint" />
            <mxPoint x="1070" y="570" as="targetPoint" />
          </mxGeometry>
        </mxCell>
        <mxCell id="JBc9ciDDr-4Mu98TSSK5-22" value="Заказ успешен" style="html=1;align=center;verticalAlign=top;rounded=1;absoluteArcSize=1;arcSize=10;dashed=0;whiteSpace=wrap;" vertex="1" parent="1">
          <mxGeometry x="630" y="500" width="140" height="40" as="geometry" />
        </mxCell>
        <mxCell id="JBc9ciDDr-4Mu98TSSK5-23" value="[Оплачено]" style="html=1;verticalAlign=bottom;endArrow=block;curved=0;rounded=0;exitX=0;exitY=0.5;exitDx=0;exitDy=0;entryX=1;entryY=0.5;entryDx=0;entryDy=0;" edge="1" parent="1" source="JBc9ciDDr-4Mu98TSSK5-20" target="JBc9ciDDr-4Mu98TSSK5-22">
          <mxGeometry width="80" relative="1" as="geometry">
            <mxPoint x="700" y="540" as="sourcePoint" />
            <mxPoint x="780" y="540" as="targetPoint" />
          </mxGeometry>
        </mxCell>
        <mxCell id="JBc9ciDDr-4Mu98TSSK5-24" value="[Просрочено]" style="html=1;verticalAlign=bottom;endArrow=block;curved=0;rounded=0;exitX=0.5;exitY=1;exitDx=0;exitDy=0;entryX=0.75;entryY=1;entryDx=0;entryDy=0;" edge="1" parent="1" source="JBc9ciDDr-4Mu98TSSK5-20" target="JBc9ciDDr-4Mu98TSSK5-7">
          <mxGeometry width="80" relative="1" as="geometry">
            <mxPoint x="680" y="530" as="sourcePoint" />
            <mxPoint x="760" y="530" as="targetPoint" />
            <Array as="points">
              <mxPoint x="990" y="570" />
              <mxPoint x="449" y="570" />
            </Array>
          </mxGeometry>
        </mxCell>
        <mxCell id="JBc9ciDDr-4Mu98TSSK5-25" value="" style="html=1;verticalAlign=bottom;endArrow=block;curved=0;rounded=0;exitX=0;exitY=0.5;exitDx=0;exitDy=0;" edge="1" parent="1" source="JBc9ciDDr-4Mu98TSSK5-22">
          <mxGeometry width="80" relative="1" as="geometry">
            <mxPoint x="680" y="530" as="sourcePoint" />
            <mxPoint x="470" y="450" as="targetPoint" />
            <Array as="points">
              <mxPoint x="470" y="520" />
            </Array>
          </mxGeometry>
        </mxCell>
        <mxCell id="JBc9ciDDr-4Mu98TSSK5-29" style="edgeStyle=orthogonalEdgeStyle;rounded=0;orthogonalLoop=1;jettySize=auto;html=1;exitX=0.5;exitY=1;exitDx=0;exitDy=0;" edge="1" parent="1" source="JBc9ciDDr-4Mu98TSSK5-26" target="JBc9ciDDr-4Mu98TSSK5-27">
          <mxGeometry relative="1" as="geometry" />
        </mxCell>
        <mxCell id="JBc9ciDDr-4Mu98TSSK5-26" value="Завершение сессии" style="html=1;align=center;verticalAlign=top;rounded=1;absoluteArcSize=1;arcSize=10;dashed=0;whiteSpace=wrap;" vertex="1" parent="1">
          <mxGeometry x="344" y="670" width="140" height="40" as="geometry" />
        </mxCell>
        <mxCell id="JBc9ciDDr-4Mu98TSSK5-27" value="" style="ellipse;html=1;shape=endState;fillColor=strokeColor;" vertex="1" parent="1">
          <mxGeometry x="399" y="770" width="30" height="30" as="geometry" />
        </mxCell>
        <mxCell id="JBc9ciDDr-4Mu98TSSK5-28" value="Завершить сессию" style="html=1;verticalAlign=bottom;endArrow=block;curved=0;rounded=0;exitX=0.5;exitY=1;exitDx=0;exitDy=0;entryX=0.5;entryY=0;entryDx=0;entryDy=0;" edge="1" parent="1" source="JBc9ciDDr-4Mu98TSSK5-7" target="JBc9ciDDr-4Mu98TSSK5-26">
          <mxGeometry x="0.7" width="80" relative="1" as="geometry">
            <mxPoint x="490" y="470" as="sourcePoint" />
            <mxPoint x="570" y="470" as="targetPoint" />
            <mxPoint as="offset" />
          </mxGeometry>
        </mxCell>
      </root>
    </mxGraphModel>
  </diagram>
</mxfile>
